<?xml version="1.0" standalone="no"?>
<!DOCTYPE svg PUBLIC "-//W3C//DTD SVG 20010904//EN"
 "http://www.w3.org/TR/2001/REC-SVG-20010904/DTD/svg10.dtd">
<svg version="1.0" xmlns="http://www.w3.org/2000/svg"
 width="769.000000pt" height="769.000000pt" viewBox="0 0 769.000000 769.000000"
 preserveAspectRatio="xMidYMid meet">
<metadata>
Created by potrace 1.14, written by Peter Selinger 2001-2017
</metadata>
<g transform="translate(0.000000,769.000000) scale(0.100000,-0.100000)"
fill="#000000" stroke="none">
<path d="M2885 7460 c-5 -8 -10 -28 -11 -44 -8 -101 -96 -150 -289 -161 -149
-8 -270 -58 -327 -135 l-21 -29 -27 42 c-51 80 -120 124 -241 154 -37 9 -189
10 -189 1 0 -4 4 -8 9 -8 9 0 47 -54 83 -118 23 -42 31 -115 18 -164 -14 -51
-102 -134 -162 -154 -10 -4 -18 -10 -18 -14 0 -4 -13 -13 -30 -20 -16 -7 -30
-16 -30 -20 0 -4 -11 -11 -25 -14 -14 -4 -23 -11 -20 -17 4 -5 3 -9 -2 -8 -24
4 -43 -3 -43 -16 0 -9 -6 -12 -15 -9 -8 4 -15 1 -15 -5 0 -6 -6 -11 -13 -11
-19 0 -59 -45 -50 -55 5 -4 3 -5 -3 -2 -13 8 -84 -60 -84 -80 0 -8 -4 -12 -8
-9 -8 4 -57 -85 -57 -103 0 -3 -4 -11 -8 -18 -4 -7 -10 -36 -13 -65 -3 -29
-11 -59 -16 -65 -6 -7 -7 -13 -2 -13 5 0 4 -4 -3 -8 -6 -4 -13 -14 -15 -22 -2
-8 -9 -21 -16 -28 -7 -8 -10 -18 -7 -23 4 -5 2 -9 -3 -9 -12 0 -30 -82 -27
-128 1 -21 15 -66 30 -99 25 -57 26 -63 12 -90 -8 -15 -27 -63 -42 -106 -23
-64 -26 -84 -18 -115 12 -45 5 -66 -22 -70 -11 -2 -23 -9 -27 -15 -6 -9 -8 -9
-8 1 0 6 -7 12 -15 12 -8 0 -15 4 -15 9 0 15 -59 18 -85 5 -13 -7 -26 -10 -29
-6 -6 5 -10 -14 -7 -30 0 -5 -3 -8 -8 -8 -5 0 -8 -11 -7 -25 2 -13 -1 -22 -5
-19 -5 3 -10 -7 -10 -23 -3 -62 -6 -91 -13 -102 -4 -7 -2 -18 4 -26 9 -11 9
-15 1 -15 -7 0 -11 -6 -10 -12 3 -28 -2 -37 -20 -33 -33 6 -69 -35 -85 -99 -9
-33 -14 -62 -11 -64 2 -3 -12 -14 -33 -24 -50 -27 -50 -27 -56 -73 -3 -22 -10
-54 -15 -72 -5 -17 -7 -34 -4 -36 2 -3 -12 -11 -31 -18 -31 -11 -44 -26 -52
-61 -1 -5 -3 -11 -4 -15 -1 -5 -1 -20 -1 -34 2 -18 -5 -28 -23 -37 -14 -6 -26
-16 -26 -22 0 -5 -7 -10 -15 -10 -37 0 -55 -144 -24 -201 16 -30 41 -49 54
-41 5 3 4 -1 -3 -10 -16 -20 -43 -109 -36 -120 3 -4 1 -8 -3 -8 -5 0 -10 -19
-12 -42 -2 -49 -6 -55 -24 -40 -19 16 -94 7 -119 -14 -12 -10 -18 -13 -14 -6
7 12 -22 17 -68 12 -21 -2 -66 -43 -66 -60 0 -6 -4 -9 -10 -5 -5 3 -14 -14
-20 -37 -6 -24 -13 -48 -15 -55 -2 -6 3 -32 11 -59 8 -26 13 -48 12 -49 -2 -2
-17 -10 -35 -19 -24 -12 -35 -28 -49 -68 -24 -73 -26 -101 -9 -140 14 -35 49
-63 65 -53 6 4 10 2 10 -4 0 -6 13 -6 37 1 38 10 80 53 75 76 -3 10 1 11 17 2
23 -12 90 -10 97 2 3 5 10 6 15 3 5 -4 9 -2 9 3 0 5 31 9 69 10 55 0 69 -3 64
-13 -2 -8 -1 -19 3 -26 4 -7 8 -29 9 -50 2 -28 -2 -39 -12 -39 -47 0 -70 -76
-53 -171 5 -24 6 -46 4 -48 -8 -9 -27 18 -29 41 -5 53 -24 68 -112 87 -28 6
-45 5 -52 -2 -8 -8 -11 -6 -11 6 0 20 -72 57 -99 52 -9 -2 -25 -4 -37 -4 -11
-1 -30 -10 -42 -22 -12 -11 -26 -17 -31 -14 -5 3 -12 1 -16 -5 -4 -6 -10 -8
-15 -5 -14 8 -60 -37 -66 -65 -10 -50 -11 -70 -2 -70 5 0 6 -4 3 -10 -3 -5 0
-20 7 -32 7 -13 11 -27 10 -31 -1 -4 5 -10 13 -13 8 -4 15 -12 15 -19 0 -21
50 -67 65 -61 8 3 15 1 15 -5 0 -6 4 -8 9 -4 6 3 8 -6 5 -21 -3 -19 -1 -24 8
-18 10 6 10 5 2 -7 -6 -8 -9 -23 -7 -34 2 -11 4 -24 3 -30 -6 -98 -6 -134 3
-155 5 -14 11 -31 13 -39 1 -8 6 -17 11 -20 5 -3 14 -18 20 -33 9 -19 25 -31
55 -40 30 -9 44 -19 46 -33 1 -11 3 -28 4 -37 1 -10 6 -18 10 -18 4 0 5 -6 2
-14 -3 -8 0 -17 5 -21 6 -3 9 -11 6 -16 -4 -5 1 -12 9 -15 9 -3 14 -10 11 -14
-3 -5 1 -12 9 -17 7 -4 16 -17 18 -28 2 -11 10 -19 17 -17 7 1 10 -2 7 -7 -4
-5 9 -36 28 -68 34 -57 68 -89 86 -78 5 3 11 1 14 -3 3 -5 18 -7 32 -4 16 3
25 1 21 -4 -3 -6 3 -29 13 -53 11 -23 24 -60 30 -82 6 -21 15 -39 21 -39 6 0
7 -4 4 -10 -11 -17 26 -127 54 -161 24 -29 33 -32 78 -33 29 0 51 -3 50 -6 -7
-28 91 -190 115 -190 5 0 8 -7 8 -15 0 -8 5 -15 10 -15 6 0 10 -7 10 -16 0 -9
5 -12 12 -8 6 4 3 -8 -9 -27 -21 -35 -24 -78 -8 -114 12 -28 105 -115 124
-116 9 -1 26 -3 39 -4 12 -1 22 2 22 6 0 23 21 6 26 -21 4 -17 11 -30 17 -30
6 0 8 -3 4 -6 -13 -13 60 -118 85 -123 4 -1 22 -8 40 -15 18 -8 47 -12 64 -9
25 4 32 1 37 -16 3 -13 1 -19 -5 -15 -7 5 -9 -5 -4 -27 15 -83 51 -138 94
-146 9 -2 28 -4 42 -6 14 -2 31 -6 37 -10 7 -4 34 -9 60 -11 79 -7 126 36 116
105 -2 17 1 26 11 26 8 0 14 -3 13 -6 -1 -3 2 -8 8 -11 5 -3 19 -15 32 -28 13
-13 28 -20 35 -16 7 4 8 3 4 -4 -8 -13 28 -35 39 -24 5 4 6 3 3 -3 -3 -5 3
-18 14 -27 10 -10 18 -16 18 -13 0 3 12 -8 28 -23 15 -15 37 -33 50 -40 24
-13 110 -14 118 -1 3 5 11 6 19 2 8 -3 15 0 15 6 0 6 7 11 15 11 8 0 17 12 21
28 3 15 8 34 10 42 2 9 19 20 37 25 21 7 32 16 31 27 -1 15 1 15 33 -2 18 -10
47 -17 63 -16 l28 2 -24 -29 c-35 -42 -28 -106 15 -148 17 -16 34 -29 38 -30
19 -2 45 -8 49 -11 2 -2 -3 -17 -11 -32 -12 -23 -13 -36 -4 -70 6 -22 12 -69
13 -103 1 -35 7 -68 14 -75 7 -7 12 -18 12 -25 0 -8 9 -33 20 -55 18 -38 19
-43 4 -60 -9 -9 -26 -20 -38 -24 -20 -7 -68 -37 -92 -59 -12 -12 -45 -72 -43
-80 0 -3 -2 -23 -6 -45 -4 -26 -2 -49 9 -72 16 -33 27 -42 90 -77 32 -18 153
-48 171 -42 6 1 17 4 25 6 8 2 41 15 73 29 31 14 93 40 136 56 44 17 91 40
105 51 36 29 46 74 27 126 -16 44 -11 64 12 45 8 -7 66 -14 133 -16 65 -3 138
-9 162 -14 33 -7 49 -6 73 7 17 9 30 19 28 21 -1 3 3 14 9 26 9 16 8 26 -5 44
-9 13 -12 21 -7 17 11 -6 46 28 37 36 -2 3 12 4 31 2 20 -2 36 1 36 5 0 5 6 7
13 4 7 -2 20 3 28 13 21 24 61 132 53 144 -3 5 0 9 7 9 10 0 10 3 2 11 -8 8
-7 21 5 48 8 20 14 48 13 64 -1 15 4 27 11 27 6 0 8 -3 5 -7 -4 -3 -2 -12 4
-19 7 -8 7 -19 1 -31 -26 -50 7 -133 52 -133 12 0 17 -4 11 -8 -13 -9 -20 -56
-7 -48 6 4 8 -2 5 -14 -3 -11 0 -20 6 -20 6 0 10 -5 9 -11 -6 -26 65 -51 152
-54 47 -1 89 0 94 3 5 3 27 6 50 7 53 2 100 21 90 37 -5 7 -3 8 7 2 14 -8 29
-13 61 -16 17 -2 19 -32 4 -68 -12 -29 -13 -65 -4 -90 6 -14 12 -36 14 -49 12
-61 57 -93 142 -99 73 -5 122 21 213 115 42 43 96 96 120 117 69 63 89 94 89
144 0 24 -5 52 -11 64 -13 25 -8 30 33 34 18 2 39 6 47 9 10 4 11 2 4 -7 -5
-7 -10 -29 -11 -48 -6 -89 111 -132 214 -80 41 22 48 30 45 56 -1 11 117 14
135 2 5 -4 36 -6 67 -5 47 2 61 7 86 31 17 16 28 33 25 38 -3 4 0 8 6 8 14 0
5 83 -10 88 -5 2 -8 8 -4 13 3 5 0 9 -6 9 -7 0 -8 6 -1 19 6 10 8 21 5 24 -3
3 5 8 18 12 24 7 78 59 78 75 0 4 5 10 11 12 17 6 16 88 -2 99 -10 7 -7 8 13
5 27 -5 71 -40 61 -50 -10 -10 -5 -67 7 -81 8 -9 8 -15 0 -20 -6 -3 -7 -11 -4
-17 4 -6 2 -8 -4 -4 -12 7 -48 -39 -53 -69 -2 -11 0 -26 5 -34 7 -11 6 -12 -5
-5 -18 11 19 -47 40 -62 32 -24 84 -14 136 25 59 44 101 68 91 52 -10 -16 76
-14 93 2 11 10 12 9 6 -2 -10 -17 50 23 83 56 13 13 20 28 17 33 -3 6 -2 10 4
10 5 0 14 -6 18 -12 13 -20 50 -38 79 -38 16 0 34 -10 46 -25 27 -35 102 -52
148 -35 3 2 8 2 11 2 4 -1 23 14 44 33 20 19 40 35 44 35 15 0 74 58 79 76 10
43 4 84 -12 96 -12 8 -17 40 -5 33 10 -7 22 36 22 76 0 27 1 27 17 7 17 -21
76 -28 102 -12 7 5 15 9 18 10 27 5 95 54 76 54 -4 0 2 10 13 21 23 25 51 80
51 101 0 8 8 23 18 34 24 26 83 147 86 178 1 14 8 31 14 39 7 8 9 17 5 21 -4
4 -1 5 7 1 19 -6 70 94 74 145 2 19 10 51 18 70 8 19 13 40 11 47 -2 6 1 14 6
18 7 4 8 12 1 24 -8 15 -5 18 13 17 12 -1 28 2 35 7 9 7 11 6 7 -5 -7 -18 26
-49 54 -51 15 -1 21 -8 21 -25 0 -13 4 -21 9 -18 5 4 7 -2 4 -12 -4 -19 15
-42 39 -46 7 -1 18 -5 24 -8 15 -10 70 7 67 20 -2 6 3 9 11 6 12 -5 19 4 26
31 1 6 11 23 22 38 11 15 21 33 22 40 2 7 6 20 11 30 4 10 5 21 1 24 -3 3 -2
11 3 17 14 17 21 66 10 66 -6 0 -8 4 -5 9 9 13 -4 42 -15 35 -5 -3 -8 0 -7 7
4 17 -62 39 -83 29 -10 -6 -19 -3 -26 9 -9 15 -7 16 23 13 24 -3 34 0 34 9 0
9 3 10 8 4 8 -11 66 -45 77 -45 3 0 3 6 -1 13 -6 9 -5 9 7 0 26 -21 105 29
113 73 3 11 9 32 15 47 33 85 -9 188 -78 191 -18 1 -26 5 -21 11 4 6 1 26 -9
45 -12 26 -26 38 -56 48 -22 7 -42 18 -46 24 -4 6 -11 8 -17 4 -6 -4 -9 9 -7
34 2 22 -1 40 -6 40 -6 0 -7 5 -3 11 3 6 -4 25 -16 41 -13 17 -17 27 -9 23 7
-5 30 -10 51 -11 20 -1 45 -9 53 -18 9 -9 24 -17 33 -18 9 0 22 -2 27 -3 6 -2
14 -3 19 -4 5 0 4 -7 -2 -13 -15 -20 -8 -93 11 -112 9 -10 17 -14 17 -9 0 4 4
2 9 -5 12 -20 79 -17 109 5 44 33 84 182 60 226 -11 21 -74 51 -93 44 -8 -4
-12 5 -11 24 1 16 4 29 8 29 8 0 4 56 -6 88 -4 12 -12 22 -17 22 -5 0 -9 7 -9
16 0 9 -5 12 -12 8 -8 -5 -9 -2 -3 12 27 67 34 111 30 200 -3 52 -7 99 -10
104 -3 4 -1 10 4 12 5 1 1 20 -9 41 -10 20 -15 37 -11 37 4 0 8 23 10 52 1 28
4 55 7 59 2 4 0 10 -5 13 -5 3 -7 15 -4 25 4 16 19 20 43 11 26 -10 90 17 90
37 0 8 4 12 9 9 19 -12 44 48 44 103 1 69 -22 115 -63 129 -16 6 -30 14 -30
17 0 3 4 4 10 0 10 -6 35 73 26 82 -3 3 -1 13 4 23 5 10 6 21 2 25 -4 3 -7 10
-8 13 -5 63 -40 108 -89 115 -31 4 -72 -9 -90 -29 -17 -19 -45 -25 -45 -9 0 8
-10 23 -22 35 -16 15 -24 17 -30 8 -6 -10 -8 -10 -8 0 0 8 -5 10 -12 6 -7 -4
-4 2 6 14 11 12 15 22 10 22 -5 0 -1 5 9 11 9 6 15 14 12 20 -4 5 -2 9 4 9 15
0 4 107 -17 155 -9 21 -31 83 -36 100 -1 6 -8 28 -14 50 -6 22 -11 43 -12 48
0 4 -7 21 -15 37 -9 17 -14 34 -11 39 3 4 -2 20 -10 35 -7 16 -14 35 -14 42 0
8 -9 23 -20 34 -11 11 -17 20 -14 20 4 0 -1 11 -10 25 -9 13 -16 31 -16 40 0
21 -38 95 -49 95 -4 0 -14 11 -21 25 -7 13 -17 22 -22 19 -4 -3 -8 1 -8 8 0 8
-13 21 -29 31 -17 10 -31 28 -34 44 -3 16 -8 44 -12 63 -4 19 -10 37 -13 40
-4 3 -8 18 -9 34 -1 16 -8 33 -15 38 -10 6 -10 8 1 8 11 0 11 3 0 16 -7 8 -13
34 -14 57 -3 58 -15 104 -31 118 -8 6 -14 18 -14 25 0 7 -13 23 -29 35 -26 19
-53 68 -30 53 5 -3 9 -1 9 5 0 5 -5 13 -10 16 -6 4 -8 10 -5 15 6 10 -45 73
-53 65 -8 -8 -33 32 -38 62 -3 15 -14 49 -26 75 -19 45 -23 48 -48 43 -18 -4
-27 -2 -27 7 0 22 -34 68 -46 61 -5 -3 -7 -2 -4 4 3 5 -2 16 -11 24 -39 33
-81 59 -96 59 -10 0 -20 18 -30 50 -32 106 -94 181 -425 509 -312 310 -395
385 -438 402 -12 4 -41 20 -65 36 -24 15 -47 28 -53 29 -5 2 -44 15 -85 29
-78 28 -92 32 -149 41 -18 3 -43 8 -55 10 -11 3 -37 8 -56 11 -19 2 -52 8 -73
13 -21 4 -100 7 -175 5 -151 -3 -202 -8 -221 -19 -7 -5 -30 -9 -51 -11 -22 -2
-52 -6 -67 -9 -15 -4 -37 -8 -48 -10 -11 -2 -40 -9 -65 -16 -25 -7 -52 -13
-60 -15 -36 -7 -228 -88 -272 -115 -27 -17 -53 -30 -59 -30 -17 0 -159 -73
-159 -82 0 -4 -6 -8 -12 -8 -7 0 -31 -17 -53 -38 -99 -91 -89 -86 -126 -66
-19 9 -36 20 -39 23 -22 28 -148 79 -189 76 -48 -4 -8 28 54 41 81 18 129 25
188 26 l69 2 -40 38 c-49 46 -147 100 -240 133 -74 26 -91 30 -192 45 -36 5
-82 13 -102 16 -21 4 -81 1 -133 -6 -52 -7 -98 -12 -101 -11 -9 1 -11 62 -3
67 12 7 -12 107 -40 168 -20 46 -29 57 -36 46z m-2083 -3474 c23 7 63 -31 70
-68 10 -46 13 -53 31 -69 9 -9 24 -38 32 -65 8 -27 15 -49 15 -49 0 0 -14 0
-30 -1 -17 -1 -30 3 -30 8 0 5 -5 6 -12 2 -6 -4 -8 -3 -5 3 10 16 -25 41 -56
39 -24 -1 -29 3 -34 26 -3 15 -8 28 -12 28 -4 0 -6 12 -5 28 1 15 -2 32 -5 37
-4 6 -8 24 -10 40 -2 17 -8 36 -13 43 -9 10 -5 11 17 2 15 -6 36 -8 47 -4z
m6302 -931 c-4 -8 -8 -15 -10 -15 -2 0 -4 7 -4 15 0 8 4 15 10 15 5 0 7 -7 4
-15z m-11 -61 c-2 -6 1 -15 6 -19 6 -3 9 -11 6 -16 -9 -14 32 -67 57 -75 26
-8 48 -28 48 -43 0 -13 -10 -14 -30 -2 -8 6 -19 7 -25 3 -5 -3 -16 -7 -23 -8
-7 -2 -21 -12 -31 -23 -10 -11 -21 -18 -24 -15 -3 3 -11 7 -19 8 -25 5 -48 18
-48 27 0 9 43 109 64 149 7 14 11 32 9 40 -4 13 -3 13 5 1 6 -8 8 -20 5 -27z
m-332 -477 c-10 -9 -11 -8 -5 6 3 10 9 15 12 12 3 -3 0 -11 -7 -18z m-11 -455
c-14 -2 -31 -9 -38 -14 -20 -17 -25 -2 -6 20 14 17 21 19 43 9 l25 -12 -24 -3z
m60 4 c0 -2 -7 -6 -15 -10 -8 -3 -15 -1 -15 4 0 6 7 10 15 10 8 0 15 -2 15 -4z
m-180 -148 c0 -18 -2 -20 -9 -8 -6 8 -7 18 -5 22 9 14 14 9 14 -14z m-82 -12
c-15 -13 -24 -27 -20 -32 4 -4 2 -4 -4 -1 -6 3 -17 -6 -25 -21 -8 -15 -20 -31
-26 -35 -7 -4 -13 -13 -13 -18 0 -6 -9 -22 -20 -36 -11 -14 -17 -29 -15 -33 3
-5 1 -11 -3 -14 -5 -3 -9 12 -9 34 0 24 5 41 14 44 8 3 12 10 9 14 -3 5 1 18
9 28 8 10 15 27 15 37 0 9 7 17 15 17 8 0 15 6 15 13 0 9 3 8 9 -2 6 -9 11
-10 15 -2 4 6 11 9 16 6 4 -3 13 2 20 10 7 8 15 15 19 15 3 0 -6 -11 -21 -24z
m-5058 -442 c0 -8 -4 -12 -10 -9 -5 3 -10 10 -10 16 0 5 5 9 10 9 6 0 10 -7
10 -16z m155 -42 c-3 -3 -11 0 -18 7 -9 10 -8 11 6 5 10 -3 15 -9 12 -12z
m2447 -480 c10 -12 10 -16 1 -19 -7 -3 -13 -12 -13 -20 0 -14 -2 -14 -18 0
-10 10 -23 17 -28 17 -5 0 -9 10 -9 23 0 19 4 22 27 19 15 -2 33 -11 40 -20z
m892 -37 c3 -8 1 -15 -4 -15 -6 0 -10 7 -10 15 0 8 2 15 4 15 2 0 6 -7 10 -15z"/>
<path d="M7555 4494 c-8 -9 -15 -12 -15 -8 0 19 -28 -21 -34 -47 -9 -46 19
-97 58 -107 17 -5 33 -6 36 -3 3 3 10 6 15 7 28 3 55 18 56 30 3 27 4 32 10
38 10 11 -14 73 -34 85 -30 19 -75 21 -92 5z"/>
<path d="M7001 1855 c-25 -13 -63 -70 -53 -80 4 -3 0 -10 -7 -15 -17 -10 -22
-73 -10 -109 10 -29 52 -52 98 -53 34 -1 96 41 106 72 3 11 11 20 17 20 5 0 8
6 5 14 -3 8 -3 17 1 20 10 10 13 48 3 42 -5 -3 -7 2 -4 13 4 17 -44 79 -64 82
-42 6 -74 4 -92 -6z"/>
</g>
</svg>
